<svg width="193" height="40" viewBox="0 0 193 40" fill="none" xmlns="http://www.w3.org/2000/svg">
<g clip-path="url(#clip0_1702_5751)">
<path d="M42.7521 27.6186C37.2212 27.6186 33.4646 24.7682 33.1361 20.2866L33.1196 20.0306H35.5948L35.6113 20.2866C35.9727 23.3374 38.7545 25.286 42.8781 25.286C47.0016 25.286 49.6027 23.3207 49.6027 20.2532V20.2365C49.6027 17.6255 47.9763 16.1781 43.9623 15.2595L41.1093 14.6193C36.0493 13.4613 33.7713 11.24 33.7713 7.47106V7.45436C33.7877 3.24559 37.495 0.272731 42.6645 0.272731C47.8339 0.272731 51.3386 3.25116 51.6453 7.60467L51.6617 7.86076H49.1865L49.1701 7.62137C48.7923 4.5149 46.2787 2.60537 42.5933 2.60537C38.9079 2.60537 36.2848 4.53717 36.2848 7.38199V7.42096C36.2848 9.88164 37.9824 11.3903 41.7609 12.2365L44.614 12.899C49.9641 14.1127 52.1327 16.2226 52.1327 20.1363V20.153C52.1327 24.6903 48.4801 27.6297 42.7521 27.6297V27.6186ZM60.5604 27.1955V0.6847H63.0192V12.4815H78.2701V0.6847H80.7454V27.1955H78.2701V14.7585H63.0192V27.1955H60.5604ZM90.4545 27.1955V0.6847H106.193V2.96167H92.9078V12.4982H105.525V14.7418H92.9078V24.9185H106.193V27.1955H90.4545ZM113.553 27.1955L122.627 13.9123V13.8399L113.646 0.6847H116.608L124.237 11.9638H124.33L131.991 0.6847H134.811L125.666 13.9512V14.0069L134.685 27.2011H131.722L124.133 15.9944H124.039L116.378 27.2011H113.553V27.1955ZM152.198 27.6186C144.914 27.6186 140.342 22.3465 140.342 13.9512V13.9123C140.342 5.55039 144.931 0.261597 152.198 0.261597C159.464 0.261597 164.037 5.55039 164.037 13.9123V13.9512C164.037 22.3465 159.481 27.6186 152.198 27.6186ZM152.198 25.286C157.942 25.286 161.507 20.8378 161.507 13.9512V13.9123C161.507 6.98672 157.893 2.59423 152.198 2.59423C146.502 2.59423 142.855 6.96445 142.855 13.9123V13.9512C142.855 20.8935 146.47 25.286 152.198 25.286ZM172.695 27.1955V0.6847H175.137L190.465 22.9533H190.558V0.6847H193V27.1955H190.558L175.23 4.92687H175.137V27.1955H172.695Z" fill="black"/>
<path d="M34.7131 39.7438C33.8424 39.7438 33.2509 39.2985 33.2017 38.5914V38.5525H33.5905V38.5914C33.6507 39.0702 34.0888 39.3764 34.735 39.3764C35.3812 39.3764 35.7919 39.0702 35.7919 38.5859C35.7919 38.1739 35.5345 37.9457 34.9047 37.8009L34.4557 37.7007C33.6617 37.517 33.3002 37.1718 33.3002 36.5761C33.3002 35.9136 33.8862 35.446 34.6966 35.446C35.5071 35.446 36.0602 35.9136 36.1095 36.5984V36.6374H35.7207V36.5984C35.6604 36.1085 35.2607 35.8079 34.6857 35.8079C34.1107 35.8079 33.6945 36.1085 33.6945 36.5594C33.6945 36.9547 33.9628 37.1885 34.5543 37.3221L35.0033 37.4279C35.8466 37.6172 36.1861 37.9512 36.1861 38.5636C36.1861 39.2818 35.6111 39.7438 34.7131 39.7438ZM40.797 39.677V35.5072H41.1858V37.3611H43.5844V35.5072H43.9732V39.677H43.5844V37.723H41.1858V39.677H40.797ZM48.4636 39.677L50.0078 35.5072H50.3912L51.9354 39.677H51.5247L51.0647 38.4022H49.3288L48.8688 39.677H48.4581H48.4636ZM50.194 35.9916L49.4548 38.0626H50.9443L50.205 35.9916H50.194ZM56.4204 39.677V35.5072H57.8661C58.6656 35.5072 59.1803 35.986 59.1803 36.7264C59.1803 37.3166 58.8463 37.7619 58.3041 37.9067L59.3008 39.677H58.8463L57.9044 37.9679H56.8146V39.677H56.4204ZM56.8092 37.6228H57.8387C58.4301 37.6228 58.7806 37.2999 58.7806 36.7431C58.7806 36.1864 58.4191 35.8635 57.8222 35.8635H56.8092V37.6228ZM63.8569 39.677V35.5072H66.3321V35.8635H64.2457V37.3611H66.2281V37.7118H64.2457V39.3096H66.3321V39.6659H63.8569V39.677ZM76.2658 39.677V35.5072H78.741V35.8635H76.6546V37.3611H78.6369V37.7118H76.6546V39.3096H78.741V39.6659H76.2658V39.677ZM83.1821 39.677L84.6059 37.5893V37.5782L83.1931 35.5128H83.6585L84.8578 37.2887H84.8742L86.079 35.5128H86.5225L85.0823 37.6005V37.6116L86.5006 39.6882H86.0352L84.8414 37.9289H84.8249L83.6202 39.6882H83.1766V39.677H83.1821ZM91.0732 39.677V35.5072H92.4696C93.2527 35.5072 93.7839 36.025 93.7839 36.7988C93.7839 37.5782 93.2472 38.1071 92.4696 38.1071H91.462V39.677H91.0732ZM92.3765 35.8635H91.4565V37.7564H92.3765C93.0062 37.7564 93.3896 37.4001 93.3896 36.81C93.3896 36.2198 93.0062 35.8635 92.3765 35.8635ZM98.3783 39.677V35.5072H100.854V35.8635H98.7671V37.3611H100.749V37.7118H98.7671V39.3096H100.854V39.6659H98.3783V39.677ZM105.552 39.677V35.5072H106.998C107.797 35.5072 108.312 35.986 108.312 36.7264C108.312 37.3166 107.978 37.7619 107.436 37.9067L108.432 39.677H107.978L107.036 37.9679H105.946V39.677H105.552ZM105.941 37.6228H106.97C107.562 37.6228 107.912 37.2999 107.912 36.7431C107.912 36.1864 107.551 35.8635 106.954 35.8635H105.941V37.6228ZM112.989 39.677V35.5072H113.377V39.677H112.989ZM118.18 39.677V35.5072H120.655V35.8635H118.569V37.3611H120.551V37.7118H118.569V39.3096H120.655V39.6659H118.18V39.677ZM125.354 39.677V35.5072H125.737L128.146 39.009H128.163V35.5072H128.546V39.677H128.163L125.753 36.1753H125.737V39.677H125.354ZM135.041 39.7438C133.918 39.7438 133.19 38.8976 133.19 37.5893C133.19 36.2755 133.913 35.4404 135.041 35.4404C135.89 35.4404 136.519 35.9693 136.673 36.7543V36.7821H136.289L136.273 36.732C136.114 36.1697 135.682 35.8079 135.041 35.8079C134.154 35.8079 133.584 36.5038 133.584 37.5893C133.584 38.6749 134.159 39.3764 135.041 39.3764C135.676 39.3764 136.109 39.0201 136.278 38.43L136.289 38.4022H136.678V38.43C136.519 39.215 135.895 39.7438 135.041 39.7438ZM141.289 39.677V35.5072H143.764V35.8635H141.678V37.3611H143.66V37.7118H141.678V39.3096H143.764V39.6659H141.289V39.677ZM155.396 39.7438C154.251 39.7438 153.534 38.9143 153.534 37.5949C153.534 36.2755 154.257 35.4404 155.396 35.4404C156.535 35.4404 157.257 36.2699 157.257 37.5838C157.257 38.9088 156.54 39.7383 155.396 39.7383V39.7438ZM155.396 39.3764C156.299 39.3764 156.858 38.6749 156.858 37.5949C156.858 36.4982 156.288 35.8079 155.396 35.8079C154.503 35.8079 153.928 36.4982 153.928 37.5893C153.928 38.6861 154.497 39.3764 155.396 39.3764ZM161.901 39.677V35.5072H162.285L164.694 39.009H164.71V35.5072H165.094V39.677H164.71L162.301 36.1753H162.285V39.677H161.901ZM169.902 39.677V35.5072H170.291V39.3152H172.344V39.6715H169.902V39.677ZM176.928 39.677V35.5072H177.316V39.677H176.928ZM182.119 39.677V35.5072H182.502L184.912 39.009H184.928V35.5072H185.312V39.677H184.928L182.519 36.1753H182.502V39.677H182.119ZM190.12 39.677V35.5072H192.595V35.8635H190.508V37.3611H192.491V37.7118H190.508V39.3096H192.595V39.6659H190.12V39.677Z" fill="black"/>
<path opacity="0.3" d="M13.8381 34.071C21.4828 34.071 27.6763 27.7689 27.6763 20.0028C27.6763 12.2366 21.4773 5.93457 13.8381 5.93457C6.19896 5.93457 0 12.2366 0 20.0028C0 27.7689 6.19896 34.071 13.8381 34.071Z" fill="#3BAFB7"/>
<path d="M18.4653 8.85177C20.8693 8.85177 22.8188 6.86987 22.8188 4.42589C22.8188 1.98191 20.8693 0 18.4653 0C16.0613 0 14.1118 1.98191 14.1118 4.42589C14.1118 6.86987 16.0613 8.85177 18.4653 8.85177Z" fill="#00A0A9"/>
<path d="M9.2329 40C11.6369 40 13.5864 38.0181 13.5864 35.5741C13.5864 33.1301 11.6369 31.1482 9.2329 31.1482C6.82889 31.1482 4.87939 33.1301 4.87939 35.5741C4.87939 38.0181 6.82889 40 9.2329 40Z" fill="#00A0A9"/>
<path d="M21.1761 11.0452C19.5716 11.7801 18.4655 13.4168 18.4655 15.3097V19.9972H18.4545C18.4545 25.1747 14.331 29.3612 9.23823 29.3612C8.29086 29.3612 7.38183 29.2164 6.5166 28.9492C7.03136 28.7154 7.49683 28.3869 7.8911 27.9916C8.718 27.1343 9.23823 25.9708 9.23823 24.6736V19.9916H9.24918C9.24918 14.8142 13.3727 10.6277 18.4655 10.6277C19.4128 10.6277 20.3219 10.7724 21.1761 11.0397V11.0452Z" fill="#3BAFB7"/>
<path d="M27.6761 20.0028H18.4653V15.3152C18.4653 13.4168 19.577 11.7801 21.176 11.0508C24.9381 12.231 27.6707 15.794 27.6707 20.0083H27.6761V20.0028Z" fill="#00A0A9"/>
<path d="M9.23272 19.9917V24.6737C9.23272 25.9708 8.71249 27.1399 7.8856 27.9917C7.49132 28.387 7.02585 28.7154 6.5111 28.9493C2.73806 27.7746 0 24.206 0 19.9917H9.23272Z" fill="#00A0A9"/>
</g>
<defs>
<clipPath id="clip0_1702_5751">
<rect width="193" height="40" fill="white"/>
</clipPath>
</defs>
</svg>
